<svg width="102" height="158" viewBox="0 0 102 158" fill="none" xmlns="http://www.w3.org/2000/svg">
<path d="M98.0281 0.909169C97.9779 0.637621 97.7171 0.458155 97.4456 0.50832C97.174 0.558484 96.9946 0.819284 97.0447 1.09083L98.0281 0.909169ZM59.9457 104.043L59.9108 104.542L59.9457 104.043ZM75.7906 80.3478L75.3568 80.5963L75.7906 80.3478ZM0 153.5L3.99835 157.665L5.6061 152.12L0 153.5ZM1.8268 154.55C2.09346 154.622 2.36779 154.464 2.43952 154.197C2.51126 153.931 2.35324 153.656 2.08657 153.584L1.8268 154.55ZM6.00301 154.478C5.73162 154.427 5.47026 154.605 5.41925 154.877C5.36824 155.148 5.54689 155.409 5.81828 155.46L6.00301 154.478ZM9.86755 156.063C10.142 156.093 10.3891 155.895 10.4194 155.621C10.4496 155.346 10.2517 155.099 9.97719 155.069L9.86755 156.063ZM13.9859 155.36C13.7099 155.351 13.4782 155.566 13.4684 155.842C13.4586 156.118 13.6743 156.35 13.9503 156.36L13.9859 155.36ZM18.0432 156.357C18.3192 156.347 18.5347 156.115 18.5246 155.839C18.5145 155.563 18.2827 155.348 18.0067 155.358L18.0432 156.357ZM22.0189 155.07C21.7443 155.099 21.5454 155.346 21.5747 155.62C21.604 155.895 21.8503 156.094 22.1249 156.065L22.0189 155.07ZM26.1761 155.494C26.4481 155.446 26.6299 155.187 26.5823 154.915C26.5347 154.643 26.2756 154.461 26.0036 154.509L26.1761 155.494ZM29.9441 153.686C29.6757 153.751 29.511 154.021 29.5761 154.29C29.6412 154.558 29.9115 154.723 30.1799 154.658L29.9441 153.686ZM34.1216 153.57C34.3853 153.488 34.533 153.208 34.4513 152.944C34.3696 152.68 34.0896 152.533 33.8258 152.614L34.1216 153.57ZM37.6357 151.307C37.3773 151.405 37.2468 151.693 37.3441 151.951C37.4415 152.21 37.7299 152.34 37.9883 152.243L37.6357 151.307ZM41.7689 150.69C42.0212 150.578 42.1347 150.283 42.0225 150.03C41.9102 149.778 41.6147 149.664 41.3624 149.777L41.7689 150.69ZM44.9957 148.034C44.7502 148.16 44.6536 148.462 44.7801 148.707C44.9065 148.953 45.208 149.05 45.4535 148.923L44.9957 148.034ZM49.0326 146.952C49.2706 146.812 49.3502 146.505 49.2103 146.267C49.0704 146.029 48.764 145.95 48.526 146.09L49.0326 146.952ZM51.9437 143.952C51.7137 144.105 51.6511 144.416 51.8039 144.646C51.9566 144.876 52.267 144.938 52.497 144.785L51.9437 143.952ZM55.8375 142.433C56.0588 142.267 56.1044 141.954 55.9392 141.733C55.7741 141.512 55.4608 141.466 55.2395 141.631L55.8375 142.433ZM58.4031 139.133C58.1912 139.31 58.1629 139.625 58.3399 139.837C58.517 140.049 58.8323 140.077 59.0442 139.9L58.4031 139.133ZM62.1065 137.194C62.3082 137.006 62.3189 136.689 62.1304 136.487C61.9418 136.286 61.6254 136.275 61.4237 136.464L62.1065 137.194ZM64.2891 133.629C64.0984 133.829 64.1057 134.146 64.3054 134.336C64.5051 134.527 64.8216 134.52 65.0123 134.32L64.2891 133.629ZM67.748 131.282C67.9267 131.072 67.9008 130.756 67.6903 130.578C67.4797 130.399 67.1642 130.425 66.9855 130.635L67.748 131.282ZM69.4973 127.487C69.3318 127.708 69.3769 128.021 69.598 128.187C69.819 128.352 70.1324 128.307 70.2979 128.086L69.4973 127.487ZM72.6434 124.735C72.7944 124.504 72.7293 124.194 72.498 124.043C72.2668 123.892 71.957 123.957 71.806 124.188L72.6434 124.735ZM73.8906 120.747C73.7558 120.988 73.8418 121.292 74.0828 121.427C74.3238 121.562 74.6284 121.476 74.7633 121.235L73.8906 120.747ZM76.6325 117.593C76.7495 117.343 76.6415 117.045 76.3913 116.928C76.1412 116.811 75.8436 116.919 75.7266 117.169L76.6325 117.593ZM77.2864 113.467C77.1893 113.725 77.3203 114.014 77.5788 114.111C77.8373 114.208 78.1256 114.077 78.2226 113.818L77.2864 113.467ZM79.5015 109.925C79.5764 109.659 79.4216 109.383 79.1558 109.308C78.89 109.233 78.6138 109.388 78.5389 109.653L79.5015 109.925ZM79.4512 105.748C79.4009 106.02 79.5802 106.281 79.8517 106.331C80.1232 106.382 80.3842 106.202 80.4345 105.931L79.4512 105.748ZM80.9861 101.862C81.0096 101.587 80.8055 101.345 80.5304 101.321C80.2553 101.298 80.0132 101.502 79.9897 101.777L80.9861 101.862ZM80.1229 97.7747C80.1283 98.0508 80.3565 98.2702 80.6326 98.2648C80.9087 98.2594 81.1281 98.0312 81.1227 97.7551L80.1229 97.7747ZM80.8181 93.6564C80.7825 93.3826 80.5316 93.1895 80.2578 93.2251C79.9839 93.2608 79.7909 93.5117 79.8265 93.7855L80.8181 93.6564ZM79.0882 89.8571C79.1545 90.1251 79.4256 90.2887 79.6936 90.2225C79.9617 90.1562 80.1253 89.8851 80.059 89.6171L79.0882 89.8571ZM78.8481 85.69C78.752 85.4311 78.4642 85.2992 78.2053 85.3953C77.9464 85.4915 77.8145 85.7793 77.9107 86.0381L78.8481 85.69ZM76.3125 82.3738C76.4366 82.6205 76.7372 82.7198 76.9839 82.5957C77.2306 82.4716 77.3299 82.171 77.2058 81.9243L76.3125 82.3738ZM75.1345 78.2771C74.9881 78.0429 74.6796 77.9717 74.4455 78.1181C74.2113 78.2644 74.1401 78.5729 74.2865 78.8071L75.1345 78.2771ZM72.0074 75.4783C72.1735 75.699 72.4869 75.7433 72.7076 75.5773C72.9283 75.4113 72.9726 75.0978 72.8066 74.8772L72.0074 75.4783ZM70.1554 71.7044C69.967 71.5025 69.6506 71.4916 69.4487 71.68C69.2468 71.8684 69.2358 72.1848 69.4242 72.3867L70.1554 71.7044ZM66.5018 69.6258C66.7148 69.8014 67.03 69.7711 67.2056 69.558C67.3812 69.3449 67.3509 69.0298 67.1378 68.8541L66.5018 69.6258ZM63.7338 66.4647C63.4955 66.3252 63.1893 66.4053 63.0497 66.6436C62.9102 66.8819 62.9903 67.1882 63.2286 67.3277L63.7338 66.4647ZM59.6346 65.6467C59.8949 65.7389 60.1807 65.6027 60.2729 65.3424C60.3651 65.0821 60.2288 64.7963 59.9685 64.7041L59.6346 65.6467ZM55.8859 63.7275C55.612 63.6927 55.3617 63.8866 55.3269 64.1605C55.2922 64.4345 55.486 64.6848 55.76 64.7195L55.8859 63.7275ZM51.796 64.6586C52.0708 64.6323 52.2723 64.3881 52.246 64.1132C52.2197 63.8383 51.9755 63.6368 51.7006 63.6632L51.796 64.6586ZM47.597 64.5118C47.334 64.596 47.1892 64.8775 47.2735 65.1405C47.3577 65.4035 47.6392 65.5483 47.9022 65.4641L47.597 64.5118ZM44.2501 67.0556C44.4912 66.921 44.5776 66.6164 44.4431 66.3753C44.3085 66.1342 44.004 66.0477 43.7628 66.1823L44.2501 67.0556ZM40.3195 68.5482C40.1071 68.7246 40.0779 69.0399 40.2544 69.2523C40.4308 69.4647 40.746 69.4939 40.9585 69.3174L40.3195 68.5482ZM38.1207 72.134C38.2988 71.923 38.2722 71.6075 38.0612 71.4294C37.8502 71.2513 37.5347 71.2779 37.3566 71.4889L38.1207 72.134ZM34.9559 74.9051C34.8181 75.1444 34.9003 75.4501 35.1396 75.5879C35.3788 75.7258 35.6846 75.6436 35.8224 75.4043L34.9559 74.9051ZM34.1645 79.0346C34.2542 78.7734 34.1152 78.489 33.854 78.3993C33.5929 78.3096 33.3084 78.4486 33.2187 78.7098L34.1645 79.0346ZM32.2839 82.7925C32.2523 83.0669 32.4491 83.3148 32.7234 83.3464C32.9978 83.378 33.2457 83.1812 33.2773 82.9068L32.2839 82.7925ZM33.303 86.864C33.2664 86.5903 33.0149 86.398 32.7412 86.4346C32.4675 86.4711 32.2752 86.7226 32.3117 86.9964L33.303 86.864ZM33.4179 91.0538C33.5258 91.308 33.8193 91.4266 34.0735 91.3188C34.3277 91.211 34.4464 90.9174 34.3385 90.6632L33.4179 91.0538ZM36.3565 94.0709C36.1864 93.8534 35.8721 93.8151 35.6546 93.9852C35.4372 94.1554 35.3988 94.4696 35.569 94.6871L36.3565 94.0709ZM38.4968 97.6488C38.711 97.823 39.026 97.7905 39.2002 97.5762C39.3743 97.3619 39.3419 97.047 39.1276 96.8728L38.4968 97.6488ZM42.45 99.0914C42.208 98.9584 41.904 99.0467 41.771 99.2887C41.638 99.5307 41.7264 99.8347 41.9684 99.9677L42.45 99.0914ZM45.7564 101.704C46.0146 101.802 46.3033 101.672 46.4013 101.414C46.4994 101.156 46.3696 100.867 46.1114 100.769L45.7564 101.704ZM49.9565 101.986C49.6892 101.917 49.4162 102.077 49.3466 102.344C49.277 102.611 49.4373 102.884 49.7045 102.954L49.9565 101.986ZM53.727 103.814C53.9992 103.86 54.2576 103.677 54.3042 103.405C54.3508 103.133 54.1679 102.875 53.8957 102.828L53.727 103.814ZM57.8915 103.366C57.6168 103.339 57.3716 103.539 57.3438 103.814C57.316 104.088 57.5162 104.334 57.791 104.361L57.8915 103.366ZM61.9305 104.638C62.2066 104.644 62.4358 104.426 62.4424 104.15C62.449 103.874 62.2306 103.645 61.9545 103.638L61.9305 104.638ZM65.8224 103.541C65.5471 103.562 65.341 103.802 65.3622 104.077C65.3834 104.353 65.6238 104.559 65.8991 104.538L65.8224 103.541ZM69.8409 104.01C70.112 103.957 70.2891 103.695 70.2365 103.424C70.1839 103.153 69.9214 102.975 69.6504 103.028L69.8409 104.01ZM73.3814 102.058C73.1192 102.144 72.9768 102.427 73.0634 102.689C73.15 102.952 73.4327 103.094 73.695 103.007L73.3814 102.058ZM77.3868 101.506C77.635 101.385 77.738 101.086 77.6168 100.838C77.4957 100.59 77.1963 100.487 76.9482 100.608L77.3868 101.506ZM80.2851 98.6859C80.0557 98.8397 79.9944 99.1503 80.1482 99.3796C80.3019 99.609 80.6125 99.6703 80.8419 99.5165L80.2851 98.6859ZM84.0009 97.0811C84.2082 96.8988 84.2285 96.5828 84.0461 96.3755C83.8637 96.1682 83.5477 96.1479 83.3404 96.3303L84.0009 97.0811ZM86.0788 93.6078C85.8948 93.8136 85.9125 94.1297 86.1183 94.3138C86.3242 94.4978 86.6403 94.4801 86.8243 94.2742L86.0788 93.6078ZM89.3085 91.172C89.4697 90.9477 89.4186 90.6353 89.1944 90.4741C88.9701 90.313 88.6577 90.3641 88.4965 90.5883L89.3085 91.172ZM90.6079 87.337C90.4681 87.5751 90.5478 87.8815 90.7859 88.0213C91.024 88.1612 91.3304 88.0815 91.4703 87.8433L90.6079 87.337ZM93.3364 84.3458C93.4568 84.0973 93.353 83.7982 93.1046 83.6778C92.8561 83.5573 92.557 83.6611 92.4365 83.9096L93.3364 84.3458ZM94.0098 80.3504C93.9066 80.6066 94.0307 80.8979 94.2868 81.001C94.543 81.1041 94.8343 80.9801 94.9374 80.724L94.0098 80.3504ZM96.3032 77.0113C96.391 76.7495 96.2499 76.4661 95.9881 76.3783C95.7263 76.2905 95.4429 76.4315 95.3551 76.6933L96.3032 77.0113ZM96.4977 72.9634C96.4235 73.2294 96.579 73.5052 96.845 73.5794C97.1109 73.6537 97.3867 73.4982 97.461 73.2322L96.4977 72.9634ZM98.4347 69.4045C98.4968 69.1354 98.3291 68.8669 98.06 68.8048C97.791 68.7426 97.5225 68.9103 97.4603 69.1794L98.4347 69.4045ZM98.2623 65.3549C98.2109 65.6263 98.3892 65.8879 98.6605 65.9392C98.9318 65.9906 99.1934 65.8123 99.2448 65.541L98.2623 65.3549ZM99.9087 61.6515C99.9504 61.3785 99.7629 61.1234 99.4899 61.0817C99.217 61.04 98.9619 61.2275 98.9202 61.5004L99.9087 61.6515ZM99.4481 57.6239C99.4152 57.8981 99.6107 58.147 99.8849 58.18C100.159 58.213 100.408 58.0174 100.441 57.7433L99.4481 57.6239ZM100.854 53.8221C100.879 53.5471 100.676 53.3039 100.401 53.2789C100.126 53.2539 99.8831 53.4566 99.8581 53.7316L100.854 53.8221ZM100.16 49.8287C100.142 50.1042 100.351 50.342 100.627 50.3597C100.903 50.3774 101.14 50.1684 101.158 49.8928L100.16 49.8287ZM101.362 45.9596C101.373 45.6837 101.158 45.4511 100.882 45.4401C100.606 45.4291 100.374 45.6439 100.363 45.9198L101.362 45.9596ZM100.474 42.0064C100.469 42.2825 100.689 42.5102 100.965 42.5149C101.241 42.5196 101.469 42.2996 101.473 42.0235L100.474 42.0064ZM101.498 38.0854C101.497 37.8092 101.272 37.5863 100.996 37.5875C100.72 37.5886 100.497 37.8134 100.498 38.0896L101.498 38.0854ZM100.442 34.1717C100.449 34.4478 100.678 34.6661 100.954 34.6594C101.23 34.6527 101.449 34.4235 101.442 34.1474L100.442 34.1717ZM101.308 30.2116C101.296 29.9358 101.063 29.7218 100.787 29.7338C100.511 29.7458 100.297 29.9792 100.309 30.2551L101.308 30.2116ZM100.102 26.3415C100.12 26.6171 100.357 26.8267 100.632 26.8096C100.908 26.7925 101.118 26.5552 101.101 26.2796L100.102 26.3415ZM100.821 22.3527C100.799 22.0775 100.558 21.8722 100.283 21.8942C100.008 21.9163 99.8026 22.1573 99.8246 22.4326L100.821 22.3527ZM99.4772 18.5294C99.5041 18.8042 99.7487 19.0052 100.024 18.9783C100.298 18.9514 100.499 18.7068 100.472 18.4319L99.4772 18.5294ZM100.054 14.5179C100.022 14.2436 99.7743 14.047 99.5 14.0788C99.2256 14.1105 99.029 14.3587 99.0608 14.633L100.054 14.5179ZM98.575 10.7441C98.6117 11.0178 98.8633 11.21 99.137 11.1732C99.4107 11.1365 99.6028 10.8849 99.5661 10.6112L98.575 10.7441ZM99.0064 6.71264C98.9646 6.43968 98.7094 6.25231 98.4364 6.29413C98.1635 6.33596 97.9761 6.59114 98.0179 6.86409L99.0064 6.71264ZM97.386 2.99533C97.4333 3.26739 97.6922 3.44962 97.9642 3.40234C98.2363 3.35506 98.4185 3.09618 98.3713 2.82412L97.386 2.99533ZM5.81828 155.46C7.16588 155.714 8.51633 155.914 9.86755 156.063L9.97719 155.069C8.65079 154.923 7.3254 154.726 6.00301 154.478L5.81828 155.46ZM13.9503 156.36C15.3167 156.408 16.6817 156.407 18.0432 156.357L18.0067 155.358C16.6688 155.407 15.3278 155.408 13.9859 155.36L13.9503 156.36ZM22.1249 156.065C23.4816 155.92 24.8327 155.729 26.1761 155.494L26.0036 154.509C24.6819 154.74 23.3529 154.928 22.0189 155.07L22.1249 156.065ZM30.1799 154.658C31.5043 154.336 32.8189 153.973 34.1216 153.57L33.8258 152.614C32.5426 153.012 31.248 153.369 29.9441 153.686L30.1799 154.658ZM37.9883 152.243C39.2633 151.763 40.5242 151.244 41.7689 150.69L41.3624 149.777C40.1351 150.323 38.8922 150.834 37.6357 151.307L37.9883 152.243ZM45.4535 148.923C46.6654 148.299 47.8592 147.641 49.0326 146.952L48.526 146.09C47.3684 146.77 46.191 147.419 44.9957 148.034L45.4535 148.923ZM52.497 144.785C53.6339 144.03 54.7481 143.245 55.8375 142.433L55.2395 141.631C54.1647 142.433 53.0654 143.208 51.9437 143.952L52.497 144.785ZM59.0442 139.9C60.0932 139.024 61.1147 138.121 62.1065 137.194L61.4237 136.464C60.4455 137.378 59.438 138.268 58.4031 139.133L59.0442 139.9ZM65.0123 134.32C65.9581 133.33 66.8708 132.316 67.748 131.282L66.9855 130.635C66.1211 131.654 65.2215 132.653 64.2891 133.629L65.0123 134.32ZM70.2979 128.086C71.1202 126.987 71.9029 125.869 72.6434 124.735L71.806 124.188C71.0774 125.305 70.307 126.405 69.4973 127.487L70.2979 128.086ZM74.7633 121.235C75.4346 120.035 76.0586 118.82 76.6325 117.593L75.7266 117.169C75.1633 118.374 74.5504 119.568 73.8906 120.747L74.7633 121.235ZM78.2226 113.818C78.7062 112.53 79.1335 111.231 79.5015 109.925L78.5389 109.653C78.1788 110.932 77.7603 112.204 77.2864 113.467L78.2226 113.818ZM80.4345 105.931C80.6852 104.578 80.8702 103.221 80.9861 101.862L79.9897 101.777C79.8767 103.103 79.6962 104.427 79.4512 105.748L80.4345 105.931ZM81.1227 97.7551C81.0959 96.386 80.9955 95.0187 80.8181 93.6564L79.8265 93.7855C79.999 95.1107 80.0968 96.4415 80.1229 97.7747L81.1227 97.7551ZM80.059 89.6171C79.7331 88.2987 79.3305 86.9886 78.8481 85.69L77.9107 86.0381C78.3798 87.3012 78.7713 88.5752 79.0882 89.8571L80.059 89.6171ZM77.2058 81.9243C76.8979 81.3125 76.5709 80.704 76.2245 80.0993L75.3568 80.5963C75.6943 81.1855 76.0127 81.7781 76.3125 82.3738L77.2058 81.9243ZM76.2245 80.0993C75.865 79.4717 75.5016 78.8644 75.1345 78.2771L74.2865 78.8071C74.6466 79.3833 75.0035 79.9795 75.3568 80.5963L76.2245 80.0993ZM72.8066 74.8772C71.9376 73.722 71.0526 72.666 70.1554 71.7044L69.4242 72.3867C70.2961 73.321 71.1585 74.3498 72.0074 75.4783L72.8066 74.8772ZM67.1378 68.8541C66.0134 67.9274 64.8766 67.1338 63.7338 66.4647L63.2286 67.3277C64.3232 67.9686 65.4165 68.7313 66.5018 69.6258L67.1378 68.8541ZM59.9685 64.7041C58.5998 64.2192 57.2349 63.8988 55.8859 63.7275L55.76 64.7195C57.0376 64.8818 58.3328 65.1855 59.6346 65.6467L59.9685 64.7041ZM51.7006 63.6632C50.2922 63.7981 48.9193 64.088 47.597 64.5118L47.9022 65.4641C49.1591 65.0612 50.4617 64.7864 51.796 64.6586L51.7006 63.6632ZM43.7628 66.1823C42.5434 66.8627 41.3906 67.6585 40.3195 68.5482L40.9585 69.3174C41.9838 68.4657 43.086 67.7051 44.2501 67.0556L43.7628 66.1823ZM37.3566 71.4889C36.4526 72.5596 35.647 73.7056 34.9559 74.9051L35.8224 75.4043C36.4834 74.2571 37.2545 73.1599 38.1207 72.134L37.3566 71.4889ZM33.2187 78.7098C32.7605 80.0438 32.4426 81.4129 32.2839 82.7925L33.2773 82.9068C33.4273 81.6031 33.7284 80.3045 34.1645 79.0346L33.2187 78.7098ZM32.3117 86.9964C32.4956 88.3734 32.8582 89.7345 33.4179 91.0538L34.3385 90.6632C33.815 89.4292 33.4753 88.1553 33.303 86.864L32.3117 86.9964ZM35.569 94.6871C36.3857 95.731 37.3584 96.7233 38.4968 97.6488L39.1276 96.8728C38.0446 95.9924 37.1251 95.0532 36.3565 94.0709L35.569 94.6871ZM41.9684 99.9677C43.1188 100.6 44.3798 101.181 45.7564 101.704L46.1114 100.769C44.7753 100.262 43.5569 99.6998 42.45 99.0914L41.9684 99.9677ZM49.7045 102.954C50.9679 103.283 52.3079 103.571 53.727 103.814L53.8957 102.828C52.5028 102.59 51.1907 102.308 49.9565 101.986L49.7045 102.954ZM57.791 104.361C58.4816 104.431 59.1881 104.492 59.9108 104.542L59.9807 103.545C59.2679 103.495 58.5716 103.435 57.8915 103.366L57.791 104.361ZM59.9108 104.542C60.5941 104.59 61.2673 104.622 61.9305 104.638L61.9545 103.638C61.307 103.623 60.6491 103.592 59.9807 103.545L59.9108 104.542ZM65.8991 104.538C67.2594 104.433 68.5729 104.256 69.8409 104.01L69.6504 103.028C68.4212 103.267 67.1457 103.439 65.8224 103.541L65.8991 104.538ZM73.695 103.007C74.9786 102.583 76.2087 102.082 77.3868 101.506L76.9482 100.608C75.8106 101.163 74.6224 101.648 73.3814 102.058L73.695 103.007ZM80.8419 99.5165C81.9482 98.7749 83.0005 97.9613 84.0009 97.0811L83.3404 96.3303C82.3716 97.1826 81.3539 97.9694 80.2851 98.6859L80.8419 99.5165ZM86.8243 94.2742C87.6989 93.2959 88.5263 92.2601 89.3085 91.172L88.4965 90.5883C87.7338 91.6493 86.9285 92.6573 86.0788 93.6078L86.8243 94.2742ZM91.4703 87.8433C92.1305 86.7189 92.7519 85.5516 93.3364 84.3458L92.4365 83.9096C91.8629 85.0931 91.2539 86.2368 90.6079 87.337L91.4703 87.8433ZM94.9374 80.724C95.4237 79.5163 95.8785 78.2775 96.3032 77.0113L95.3551 76.6933C94.9363 77.942 94.4883 79.1621 94.0098 80.3504L94.9374 80.724ZM97.461 73.2322C97.8111 71.9773 98.1353 70.7004 98.4347 69.4045L97.4603 69.1794C97.1642 70.4615 96.8437 71.7238 96.4977 72.9634L97.461 73.2322ZM99.2448 65.541C99.4876 64.2586 99.7086 62.9612 99.9087 61.6515L98.9202 61.5004C98.7218 62.799 98.5028 64.0848 98.2623 65.3549L99.2448 65.541ZM100.441 57.7433C100.597 56.4447 100.734 55.1368 100.854 53.8221L99.8581 53.7316C99.7394 55.0371 99.603 56.3353 99.4481 57.6239L100.441 57.7433ZM101.158 49.8928C101.242 48.5852 101.31 47.2734 101.362 45.9596L100.363 45.9198C100.311 47.2258 100.244 48.5295 100.16 49.8287L101.158 49.8928ZM101.473 42.0235C101.496 40.7096 101.504 39.3961 101.498 38.0854L100.498 38.0896C100.504 39.3934 100.496 40.6998 100.474 42.0064L101.473 42.0235ZM101.442 34.1474C101.41 32.8294 101.365 31.5166 101.308 30.2116L100.309 30.2551C100.366 31.5539 100.41 32.8602 100.442 34.1717L101.442 34.1474ZM101.101 26.2796C101.019 24.959 100.925 23.6492 100.821 22.3527L99.8246 22.4326C99.9279 23.7232 100.021 25.027 100.102 26.3415L101.101 26.2796ZM100.472 18.4319C100.343 17.1087 100.203 15.803 100.054 14.5179L99.0608 14.633C99.209 15.9123 99.3482 17.2121 99.4772 18.5294L100.472 18.4319ZM99.5661 10.6112C99.388 9.2833 99.201 7.98253 99.0064 6.71264L98.0179 6.86409C98.2116 8.12779 98.3977 9.42238 98.575 10.7441L99.5661 10.6112ZM98.3713 2.82412C98.2586 2.17548 98.1441 1.53697 98.0281 0.909169L97.0447 1.09083C97.1601 1.7151 97.2739 2.35013 97.386 2.99533L98.3713 2.82412Z" fill="#9F9BA7"/>
</svg>
