<svg width="564" height="37" viewBox="0 0 564 37" fill="none" xmlns="http://www.w3.org/2000/svg">
<path d="M114.001 18.3125V18.1772M127.445 31.6212C124.602 34.4647 116.278 30.7509 108.853 23.326C101.428 15.9012 97.7141 7.57699 100.558 4.73343C103.401 1.88987 111.725 5.60374 119.15 13.0286C126.575 20.4534 130.289 28.7776 127.445 31.6212ZM100.558 31.6213C97.7144 28.7777 101.428 20.4535 108.853 13.0287C116.278 5.60383 124.602 1.88996 127.446 4.73352C130.289 7.57707 126.575 15.9013 119.151 23.3261C111.726 30.7509 103.401 34.4648 100.558 31.6213Z" stroke="#4C6AF1" stroke-width="3.66667" stroke-linecap="round"/>
<path d="M198 3.17578C206.284 3.17596 213 9.89162 213 18.1758C213 26.4598 206.284 33.1756 198 33.1758C189.716 33.1758 183 26.4599 183 18.1758C183 9.89151 189.716 3.17578 198 3.17578ZM193.475 19.5254C193.612 22.5577 194.207 25.23 195.061 27.1807C195.55 28.3004 196.099 29.1219 196.64 29.6445C196.89 29.8869 197.125 30.0504 197.341 30.1572C197.559 30.169 197.779 30.1758 198 30.1758C198.221 30.1758 198.44 30.169 198.658 30.1572C198.874 30.0504 199.109 29.8872 199.36 29.6445C199.901 29.1219 200.45 28.3004 200.939 27.1807C201.793 25.23 202.388 22.5577 202.525 19.5254H193.475ZM186.075 19.5254C186.551 23.7739 189.246 27.3489 192.973 29.0713C192.838 28.8097 192.708 28.5403 192.587 28.2627C191.564 25.9235 190.911 22.8699 190.771 19.5254H186.075ZM205.229 19.5254C205.089 22.8699 204.436 25.9235 203.413 28.2627C203.292 28.5401 203.162 28.809 203.027 29.0703C206.754 27.3477 209.448 23.7735 209.924 19.5254H205.229ZM203.027 7.2793C203.162 7.54114 203.291 7.81089 203.413 8.08887C204.437 10.4281 205.089 13.4816 205.229 16.8262H209.924C209.448 12.5776 206.754 9.00187 203.027 7.2793ZM192.973 7.27832C189.245 9.00074 186.551 12.5772 186.075 16.8262H190.771C190.911 13.4817 191.564 10.4281 192.587 8.08887C192.709 7.81063 192.838 7.54039 192.973 7.27832ZM198 6.17578C197.779 6.17578 197.56 6.18159 197.342 6.19336C197.126 6.30015 196.891 6.46423 196.64 6.70703C196.099 7.22961 195.55 8.05123 195.061 9.1709C194.207 11.1215 193.612 13.7939 193.475 16.8262H202.525C202.388 13.7939 201.793 11.1215 200.939 9.1709C200.45 8.05125 199.901 7.2296 199.36 6.70703C199.109 6.46423 198.874 6.30014 198.658 6.19336C198.44 6.18157 198.221 6.17579 198 6.17578Z" fill="#9046FF"/>
<path fill-rule="evenodd" clip-rule="evenodd" d="M266.098 7.47384C266.098 5.73651 267.506 4.32812 269.243 4.32812H275.568C277.712 4.32812 279.768 5.17971 281.284 6.69554L281.397 6.80857C281.459 6.80074 281.522 6.7967 281.586 6.7967C281.65 6.7967 281.714 6.80074 281.776 6.80857L281.889 6.69554C283.405 5.17971 285.461 4.32812 287.604 4.32812H294.752C296.489 4.32812 297.898 5.73651 297.898 7.47384V24.7538C297.898 26.4912 296.489 27.8996 294.752 27.8996H288.427C287.079 27.8996 285.786 28.4351 284.833 29.3883L282.647 31.5745C282.366 31.8558 281.984 32.0138 281.586 32.0138C281.188 32.0138 280.807 31.8558 280.526 31.5745L278.339 29.3883C277.386 28.4349 276.094 27.8996 274.746 27.8996H269.242C267.503 27.8996 266.098 26.4895 266.098 24.7538V7.47384ZM280.086 9.74087L279.162 8.81686C278.209 7.86364 276.916 7.32812 275.568 7.32812H269.243C269.163 7.32812 269.098 7.39336 269.098 7.47384V24.7538C269.098 24.836 269.163 24.8996 269.242 24.8996H274.746C276.718 24.8996 278.615 25.6203 280.086 26.9156V9.74087ZM283.086 26.9156C284.558 25.6202 286.455 24.8996 288.427 24.8996H294.752C294.832 24.8996 294.898 24.8343 294.898 24.7538V7.47384C294.898 7.39336 294.832 7.32812 294.752 7.32812H287.604C286.256 7.32812 284.963 7.86364 284.01 8.81686L283.086 9.74087V26.9156Z" fill="#FF5F1F"/>
<path fill-rule="evenodd" clip-rule="evenodd" d="M365.998 5.27344C358.873 5.27344 353.098 11.049 353.098 18.1734C353.098 25.2979 358.873 31.0734 365.998 31.0734C373.122 31.0734 378.898 25.2979 378.898 18.1734C378.898 11.049 373.122 5.27344 365.998 5.27344ZM350.098 18.1734C350.098 9.39211 357.216 2.27344 365.998 2.27344C374.779 2.27344 381.898 9.39211 381.898 18.1734C381.898 26.9548 374.779 34.0734 365.998 34.0734C357.216 34.0734 350.098 26.9548 350.098 18.1734ZM363.1 10.2605C364.524 9.5623 366.111 9.3643 367.649 9.70705C369.184 10.049 370.562 10.9041 371.627 12.1208C372.172 12.7443 372.109 13.6919 371.485 14.2374C370.862 14.7828 369.914 14.7195 369.369 14.096C368.69 13.3201 367.859 12.8274 366.997 12.6353C366.138 12.4439 365.246 12.5494 364.421 12.9542C363.682 13.3162 363.01 13.9124 362.491 14.7068H366.16C366.988 14.7068 367.66 15.3783 367.66 16.2068C367.66 17.0352 366.988 17.7068 366.16 17.7068H361.487C361.472 17.8938 361.464 18.0825 361.464 18.2723C361.464 18.4621 361.472 18.6508 361.487 18.8379H366.16C366.988 18.8379 367.66 19.5095 367.66 20.3379C367.66 21.1663 366.988 21.8379 366.16 21.8379H362.491C363.01 22.6323 363.682 23.2285 364.421 23.5905C365.246 23.9953 366.138 24.1007 366.997 23.9094C367.859 23.7173 368.69 23.2246 369.369 22.4486C369.914 21.8251 370.862 21.7618 371.485 22.3073C372.109 22.8528 372.172 23.8004 371.627 24.4239C370.562 25.6405 369.184 26.4957 367.649 26.8376C366.111 27.1804 364.524 26.9824 363.1 26.2842C361.681 25.5884 360.507 24.4386 359.696 23.0159C359.481 22.638 359.293 22.2441 359.133 21.8379H357.898C357.069 21.8379 356.398 21.1663 356.398 20.3379C356.398 19.5095 357.069 18.8379 357.898 18.8379H358.48C358.47 18.6499 358.464 18.4612 358.464 18.2723C358.464 18.0834 358.47 17.8948 358.48 17.7068H357.898C357.069 17.7068 356.398 17.0352 356.398 16.2068C356.398 15.3783 357.069 14.7068 357.898 14.7068H359.133C359.293 14.3006 359.481 13.9067 359.696 13.5288C360.507 12.1061 361.681 10.9562 363.1 10.2605Z" fill="#62C857"/>
<path fill-rule="evenodd" clip-rule="evenodd" d="M449.998 5.27344C442.873 5.27344 437.098 11.049 437.098 18.1734C437.098 25.2979 442.873 31.0734 449.998 31.0734C451.184 31.0734 452.331 30.9137 453.418 30.6154C454.202 30.4005 454.834 29.5641 454.834 28.4111V28.1274C454.834 27.875 454.775 27.626 454.662 27.4002C453.519 25.1151 454.446 22.3364 456.731 21.1938C457.373 20.8726 458.081 20.7054 458.8 20.7054H459.74C461.627 20.7054 462.898 19.499 462.898 18.1734C462.898 11.049 457.122 5.27344 449.998 5.27344ZM434.098 18.1734C434.098 9.39211 441.216 2.27344 449.998 2.27344C458.779 2.27344 465.898 9.39211 465.898 18.1734C465.898 21.6901 462.694 23.7054 459.74 23.7054H458.8C458.547 23.7054 458.298 23.7642 458.072 23.8771C457.269 24.2787 456.944 25.2554 457.345 26.0586C457.666 26.7009 457.834 27.4092 457.834 28.1274V28.4111C457.834 30.5599 456.612 32.8502 454.212 33.5085L453.815 32.062L454.212 33.5086C452.868 33.8771 451.455 34.0734 449.998 34.0734C441.216 34.0734 434.098 26.9548 434.098 18.1734ZM449.998 7.67344C450.826 7.67344 451.498 8.34501 451.498 9.17344V9.22328C451.498 10.0517 450.826 10.7233 449.998 10.7233C449.17 10.7233 448.498 10.0517 448.498 9.22328V9.17344C448.498 8.34501 449.17 7.67344 449.998 7.67344ZM442.574 10.7485C443.159 10.1627 444.109 10.1627 444.695 10.7485L444.73 10.7838C445.316 11.3696 445.316 12.3193 444.73 12.9051C444.144 13.4909 443.195 13.4909 442.609 12.9051L442.574 12.8699C441.988 12.2841 441.988 11.3343 442.574 10.7485ZM457.423 10.7491C458.009 11.3349 458.009 12.2846 457.423 12.8704L457.388 12.9056C456.802 13.4914 455.852 13.4915 455.266 12.9057C454.68 12.3199 454.68 11.3701 455.266 10.7844L455.301 10.7491C455.887 10.1633 456.837 10.1633 457.423 10.7491ZM439.498 18.1738C439.498 17.3454 440.169 16.6738 440.998 16.6738H441.048C441.876 16.6738 442.548 17.3454 442.548 18.1738C442.548 19.0022 441.876 19.6738 441.048 19.6738H440.998C440.169 19.6738 439.498 19.0022 439.498 18.1738ZM444.73 23.4418C445.316 24.0276 445.316 24.9773 444.73 25.5631L444.695 25.5983C444.109 26.1841 443.159 26.1841 442.574 25.5983C441.988 25.0126 441.988 24.0628 442.574 23.477L442.609 23.4418C443.195 22.856 444.144 22.856 444.73 23.4418Z" fill="#FFB73E"/>
</svg>
